<svg fill="#D0D8DC" xmlns="http://www.w3.org/2000/svg" xmlns:xlink="http://www.w3.org/1999/xlink" version="1.1" x="0px" y="0px" viewBox="0 0 100 100" style="enable-background:new 0 0 100 100;" xml:space="preserve"><style type="text/css">
	.st0{fill:none;stroke:#D0D8DC;stroke-width:2;stroke-linecap:round;stroke-linejoin:round;stroke-miterlimit:10;}
</style><path d="M84.1,85.5c0.6,0,1-0.4,1-1s-0.4-1-1-1H14.9V16.8c0-0.6-0.4-1-1-1s-1,0.4-1,1v67.6c0,0.6,0.4,1,1,1H84.1z"></path><path d="M19.9,80.6c0.6,0,1-0.4,1-1v-59c0-0.6-0.4-1-1-1s-1,0.4-1,1v59C18.9,80.2,19.3,80.6,19.9,80.6z"></path><path d="M24.9,80.6c0.6,0,1-0.4,1-1V27.3c0-0.6-0.4-1-1-1s-1,0.4-1,1v52.3C23.9,80.2,24.4,80.6,24.9,80.6z"></path><path d="M29.9,80.6c0.6,0,1-0.4,1-1V42.5c0-0.6-0.4-1-1-1s-1,0.4-1,1v37.2C28.9,80.2,29.4,80.6,29.9,80.6z"></path><path d="M34.9,80.6c0.6,0,1-0.4,1-1v-34c0-0.6-0.4-1-1-1s-1,0.4-1,1v34C33.9,80.2,34.4,80.6,34.9,80.6z"></path><path d="M40,80.6c0.6,0,1-0.4,1-1l0-36.5c0-0.6-0.4-1-1-1s-1,0.4-1,1l0,36.5C39,80.2,39.4,80.6,40,80.6z"></path><path d="M45,80.6c0.6,0,1-0.4,1-1V46.5c0-0.6-0.4-1-1-1s-1,0.4-1,1v33.2C44,80.2,44.4,80.6,45,80.6z"></path><path d="M50,80.6c0.6,0,1-0.4,1-1V50.1c0-0.6-0.4-1-1-1s-1,0.4-1,1v29.5C49,80.2,49.4,80.6,50,80.6z"></path><path d="M55,80.6c0.6,0,1-0.4,1-1V55.5c0-0.6-0.4-1-1-1s-1,0.4-1,1v24.2C54,80.2,54.5,80.6,55,80.6z"></path><path d="M60,80.6c0.6,0,1-0.4,1-1V40.3c0-0.6-0.4-1-1-1s-1,0.4-1,1v39.3C59,80.2,59.5,80.6,60,80.6z"></path><path d="M65.1,80.6c0.6,0,1-0.4,1-1V44.3c0-0.6-0.4-1-1-1s-1,0.4-1,1v35.3C64.1,80.2,64.5,80.6,65.1,80.6z"></path><path d="M70.1,80.6c0.6,0,1-0.4,1-1V39c0-0.6-0.4-1-1-1s-1,0.4-1,1v40.7C69.1,80.2,69.5,80.6,70.1,80.6z"></path><path d="M75.1,80.6c0.6,0,1-0.4,1-1V35.3c0-0.6-0.4-1-1-1s-1,0.4-1,1v44.3C74.1,80.2,74.5,80.6,75.1,80.6z"></path><path d="M80.1,80.6c0.6,0,1-0.4,1-1V29c0-0.6-0.4-1-1-1s-1,0.4-1,1v50.7C79.1,80.2,79.6,80.6,80.1,80.6z"></path></svg>
