<svg fill="#87909C" xmlns:dc="http://purl.org/dc/elements/1.1/" xmlns:cc="http://creativecommons.org/ns#" xmlns:rdf="http://www.w3.org/1999/02/22-rdf-syntax-ns#" xmlns:svg="http://www.w3.org/2000/svg" xmlns="http://www.w3.org/2000/svg" xmlns:sodipodi="http://sodipodi.sourceforge.net/DTD/sodipodi-0.dtd" xmlns:inkscape="http://www.inkscape.org/namespaces/inkscape" version="1.1" x="0px" y="0px" viewBox="0 0 100 100"><g transform="translate(0,-952.36218)"><path d="m 9.000001,965.36218 c -2.18142,0 -4,1.8186 -4,4 l 0,66.00002 c 0,2.1814 1.81858,4 4,4 l 81.999998,0 c 2.18142,0 4,-1.8186 4,-4 l 0,-66.00002 c 0,-2.1814 -1.81858,-4 -4,-4 l -81.999998,0 z m 0,4 81.999998,0 0,16 -81.999998,0 0,-16 z m 18,2 c -3.29002,0 -6,2.71 -6,6 0,3.29 2.70997,6 6,6 3.29003,0 6,-2.71 6,-6 0,-3.29 -2.70998,-6 -6,-6 z m 46,0 c -3.29002,0 -6,2.71 -6,6 0,3.29 2.70997,6 6,6 3.290028,0 5.999998,-2.71 5.999998,-6 0,-3.29 -2.70998,-6 -5.999998,-6 z m -46,4 c 1.12826,0 2,0.8717 2,2 0,1.1282 -0.87175,2 -2,2 -1.12825,0 -2,-0.8718 -2,-2 0,-1.1283 0.87174,-2 2,-2 z m 46,0 c 1.128258,0 1.999998,0.8717 1.999998,2 0,1.1282 -0.87175,2 -1.999998,2 -1.12825,0 -2,-0.8718 -2,-2 0,-1.1283 0.87174,-2 2,-2 z m -64,14 81.999998,0 0,46.00002 -81.999998,0 0,-46.00002 z m 7,5 0,36.00002 52,0 0,-16 15.999998,0 0,-20.00002 -67.999998,0 z m 4,4 12,0 0,12.00002 -12,0 0,-12.00002 z m 16,0 12,0 0,12.00002 -12,0 0,-12.00002 z m 16,0 12,0 0,12.00002 -12,0 0,-12.00002 z m 16,0 11.999998,0 0,12.00002 -11.999998,0 0,-12.00002 z m -48,16.00002 12,0 0,12 -12,0 0,-12 z m 16,0 12,0 0,12 -12,0 0,-12 z m 16,0 12,0 0,12 -12,0 0,-12 z" style="text-indent:0;text-transform:none;direction:ltr;block-progression:tb;baseline-shift:baseline;color:#000000;enable-background:accumulate;" fill="#87909C" fill-opacity="1" stroke="none" marker="none" visibility="visible" display="inline" overflow="visible"></path></g></svg>
