<svg fill="#87909C" xmlns:dc="http://purl.org/dc/elements/1.1/" xmlns:cc="http://creativecommons.org/ns#" xmlns:rdf="http://www.w3.org/1999/02/22-rdf-syntax-ns#" xmlns:svg="http://www.w3.org/2000/svg" xmlns="http://www.w3.org/2000/svg" xmlns:sodipodi="http://sodipodi.sourceforge.net/DTD/sodipodi-0.dtd" xmlns:inkscape="http://www.inkscape.org/namespaces/inkscape" version="1.1" x="0px" y="0px" viewBox="0 0 100 100"><g transform="translate(0,-952.36218)"><path d="m 58.96311,963.79289 a 3.0003,3.0003 0 0 0 -1.4941,1.3062 l -34.0155,58.87241 a 3.0003,3.0003 0 0 0 -0.3459,1.9691 l 1.9335,12.6493 a 3.0003,3.0003 0 0 0 4.0571,2.3423 l 11.9213,-4.6502 a 3.0003,3.0003 0 0 0 1.4942,-1.3062 l 34.0154,-58.87237 a 3.0003,3.0003 0 0 0 -1.1,-4.10518 l -13.8549,-7.99915 a 3.0003,3.0003 0 0 0 -2.6111,-0.20621 z m 2.2004,6.8838 8.6578,5.02412 -32.0046,55.38949 -7.4406,2.8996 -1.1871,-7.9318 31.9745,-55.38141 z" style="text-indent:0;text-transform:none;direction:ltr;block-progression:tb;baseline-shift:baseline;color:#000000;enable-background:accumulate;" fill="#87909C" fill-opacity="1" stroke="none" marker="none" visibility="visible" display="inline" overflow="visible"></path></g></svg>