<svg fill="#87909C" xmlns="http://www.w3.org/2000/svg" xmlns:xlink="http://www.w3.org/1999/xlink" version="1.1" x="0px" y="0px" viewBox="0 0 100 100" enable-background="new 0 0 100 100" xml:space="preserve"><g><path d="M59.667,32.167c0-5.339-4.328-9.667-9.667-9.667s-9.667,4.328-9.667,9.667c0,2.776,1.177,5.272,3.051,7.035l-9.038,57   L43.166,96L50,54.252L56.834,96l8.82,0.202l-9.038-57C58.49,37.439,59.667,34.943,59.667,32.167z"></path><path d="M15.6,11.777c-3.139,4.185-6.477,10.612-6.526,20.376c0,9.715,3.388,16.092,6.526,20.227h3.388   c-3.487-4.982-6.228-11.31-6.228-20.177c0-9.067,2.591-15.494,6.228-20.426H15.6z"></path><path d="M29.748,11.777c-3.139,4.185-6.477,10.612-6.526,20.376c0,9.715,3.388,16.092,6.526,20.227h3.388   c-3.487-4.982-6.228-11.31-6.228-20.177c0-9.067,2.591-15.494,6.228-20.426H29.748z"></path><path d="M66.864,11.777c3.537,4.982,6.228,11.309,6.228,20.277c0,8.967-2.74,15.394-6.228,20.327h3.388   c3.139-4.185,6.477-10.562,6.526-20.327c0-9.765-3.388-16.191-6.526-20.277H66.864z"></path><path d="M84.4,11.777h-3.388c3.537,4.982,6.228,11.309,6.228,20.277c0,8.967-2.74,15.394-6.228,20.327H84.4   c3.139-4.185,6.477-10.562,6.526-20.327C90.927,22.29,87.539,15.863,84.4,11.777z"></path></g></svg>