<?xml version="1.0" encoding="iso-8859-1"?>
<!-- Generator: Adobe Illustrator 18.0.0, SVG Export Plug-In . SVG Version: 6.00 Build 0)  -->
<!DOCTYPE svg PUBLIC "-//W3C//DTD SVG 1.1//EN" "http://www.w3.org/Graphics/SVG/1.1/DTD/svg11.dtd">
<svg xmlns="http://www.w3.org/2000/svg" xmlns:xlink="http://www.w3.org/1999/xlink" version="1.1" id="Capa_1" x="0px" y="0px" viewBox="0 0 452.481 452.481" style="enable-background:new 0 0 452.481 452.481;" xml:space="preserve" width="512px" height="512px">
<g>
	<path d="M209.99,324.239c27.707,0,50.248-22.541,50.248-50.248v-62.997c0-27.707-22.541-50.248-50.248-50.248   c-27.707,0-50.248,22.541-50.248,50.248v62.997C159.742,301.698,182.283,324.239,209.99,324.239z M174.742,210.994   c0-19.436,15.812-35.248,35.248-35.248c19.436,0,35.248,15.812,35.248,35.248v62.997c0,19.436-15.812,35.248-35.248,35.248h0   c-19.436,0-35.248-15.812-35.248-35.248V210.994z" fill="#87909c"/>
	<path d="M452.481,93.743H32.501v32.505H0v232.489h419.98v-32.504h32.501V93.743z M437.481,153.967   c-6.127-0.865-12.043-2.792-17.501-5.701v-22.017h-22.019c-2.91-5.459-4.838-11.376-5.703-17.505h45.224V153.967z M344.651,141.248   c3.479,31.649,28.678,56.848,60.329,60.324v81.836c-31.652,3.477-56.852,28.677-60.329,60.329H75.33   c-3.477-31.652-28.678-56.853-60.33-60.329v-81.835c31.651-3.476,56.851-28.675,60.33-60.324H344.651z M404.98,186.455   c-23.369-3.31-41.899-21.839-45.211-45.207h45.211V186.455z M103.509,126.248c2.207-5.604,3.667-11.484,4.328-17.505h269.307   c0.661,6.021,2.121,11.901,4.328,17.505H103.509z M419.98,164.753c5.602,2.206,11.482,3.666,17.501,4.326v81.817   c-6.019,0.661-11.899,2.12-17.501,4.326V164.753z M47.501,108.743h45.223c-0.866,6.128-2.793,12.046-5.703,17.505h-39.52V108.743z    M60.212,141.248C56.9,164.617,38.369,183.146,15,186.455v-45.207H60.212z M15,298.526c23.371,3.31,41.902,21.841,45.213,45.212H15   V298.526z M359.768,343.738c3.31-23.37,21.841-41.901,45.212-45.212v45.212H359.768z M419.98,311.234v-39.522   c5.458-2.909,11.374-4.836,17.501-5.701v45.223H419.98z" fill="#87909c"/>
</g>
<g>
</g>
<g>
</g>
<g>
</g>
<g>
</g>
<g>
</g>
<g>
</g>
<g>
</g>
<g>
</g>
<g>
</g>
<g>
</g>
<g>
</g>
<g>
</g>
<g>
</g>
<g>
</g>
<g>
</g>
</svg>
