<?xml version="1.0" encoding="iso-8859-1"?>
<!-- Generator: Adobe Illustrator 18.0.0, SVG Export Plug-In . SVG Version: 6.00 Build 0)  -->
<!DOCTYPE svg PUBLIC "-//W3C//DTD SVG 1.1//EN" "http://www.w3.org/Graphics/SVG/1.1/DTD/svg11.dtd">
<svg xmlns="http://www.w3.org/2000/svg" xmlns:xlink="http://www.w3.org/1999/xlink" version="1.1" id="Capa_1" x="0px" y="0px" viewBox="0 0 443.979 443.979" style="enable-background:new 0 0 443.979 443.979;" xml:space="preserve" width="512px" height="512px">
<path d="M321.374,40.961C294.749,14.522,259.494,0,221.997,0c-0.339,0-0.682,0.001-1.021,0.004  C144.172,0.543,81.352,63.47,80.94,140.278c-0.156,29.192,8.53,57.247,25.12,81.132c17.947,25.84,27.434,56.107,27.434,87.527  v67.465c0,37.261,30.314,67.576,67.576,67.576h41.84c37.262,0,67.576-30.314,67.576-67.576v-68.42  c0-30.647,9.561-60.691,27.648-86.883c16.295-23.594,24.907-51.273,24.907-80.047C363.041,103.188,348.243,67.642,321.374,40.961z   M294.069,388.481h-144.16c-0.916-3.881-1.416-7.921-1.416-12.078v-2.92h146.992v2.92C295.485,380.56,294.986,384.6,294.069,388.481  z M242.909,428.979h-41.84c-19.092,0-35.837-10.232-45.048-25.498h131.936C278.746,418.747,262.002,428.979,242.909,428.979z   M295.485,358.482H148.493v-14.999h146.992V358.482z M201.74,262.488h40.497v65.996H201.74V262.488z M325.791,212.575  c-19.826,28.71-30.306,61.701-30.306,95.407v20.501h-38.248v-80.996h-11.249v-68.139l22.553-22.552l-10.607-10.606l-26.945,26.945  v74.353H212.99v-74.353l-26.945-26.945l-10.607,10.606l22.553,22.552v68.139h-11.25v80.996h-38.247v-19.546  c0-34.494-10.413-67.719-30.113-96.084c-14.821-21.337-22.581-46.406-22.44-72.495C96.308,71.72,152.446,15.486,221.081,15.003  c33.874-0.216,65.716,12.761,89.725,36.602c24.012,23.844,37.235,55.61,37.235,89.447  C348.041,166.767,340.348,191.499,325.791,212.575z" fill="#87909c"/>
<g>
</g>
<g>
</g>
<g>
</g>
<g>
</g>
<g>
</g>
<g>
</g>
<g>
</g>
<g>
</g>
<g>
</g>
<g>
</g>
<g>
</g>
<g>
</g>
<g>
</g>
<g>
</g>
<g>
</g>
</svg>
