<?xml version="1.0" encoding="iso-8859-1"?>
<!-- Generator: Adobe Illustrator 18.0.0, SVG Export Plug-In . SVG Version: 6.00 Build 0)  -->
<!DOCTYPE svg PUBLIC "-//W3C//DTD SVG 1.1//EN" "http://www.w3.org/Graphics/SVG/1.1/DTD/svg11.dtd">
<svg xmlns="http://www.w3.org/2000/svg" xmlns:xlink="http://www.w3.org/1999/xlink" version="1.1" id="Capa_1" x="0px" y="0px" viewBox="0 0 430.151 430.151" style="enable-background:new 0 0 430.151 430.151;" xml:space="preserve" width="512px" height="512px">
<path d="M250.582,35.496c-43.165,0-84.916,15.603-117.563,43.934c-30.669,26.615-51.409,62.72-58.885,102.233H0l9.671,33.413  L0,248.49h74.135c7.477,39.513,28.216,75.617,58.885,102.232c32.646,28.332,74.397,43.934,117.563,43.934  c99.015,0,179.569-80.559,179.569-179.58C430.151,116.055,349.597,35.496,250.582,35.496z M89.654,196.663l4.043,10.913H23.115  l-3.158-10.913H89.654z M23.115,222.577h70.582l-4.043,10.913H19.957L23.115,222.577z M250.582,379.656  c-39.553,0-77.813-14.299-107.73-40.263c-27.394-23.773-46.145-55.792-53.427-90.903h10.669l9.6-25.913h3.735  c3.908,72.265,63.928,129.858,137.151,129.858c75.739,0,137.358-61.619,137.358-137.358S326.318,77.719,250.579,77.719  c-73.223,0-133.243,57.593-137.151,129.858h-3.735l-9.6-25.913H89.425c7.282-35.112,26.033-67.132,53.427-90.905  c29.918-25.964,68.178-40.263,107.73-40.263c90.744,0,164.569,73.83,164.569,164.58  C415.151,305.825,341.326,379.656,250.582,379.656z M155.734,222.577c3.837,48.968,44.909,87.639,94.845,87.639  c52.46,0,95.139-42.679,95.139-95.139c0-52.46-42.679-95.139-95.139-95.139c-49.936,0-91.008,38.672-94.845,87.639h-27.277  c3.889-63.988,57.172-114.858,122.122-114.858c67.469,0,122.358,54.889,122.358,122.358s-54.89,122.358-122.358,122.358  c-64.95,0-118.233-50.87-122.122-114.858H155.734z M198.199,222.577c3.655,25.64,25.746,45.42,52.379,45.42  c29.181,0,52.921-23.74,52.921-52.92s-23.74-52.92-52.921-52.92c-26.633,0-48.724,19.78-52.379,45.42h-27.397  c3.795-40.684,38.118-72.639,79.777-72.639c44.188,0,80.139,35.95,80.139,80.139c0,44.189-35.95,80.139-80.139,80.139  c-41.659,0-75.982-31.955-79.777-72.639H198.199z M238.441,222.577c2.521,4.065,7.012,6.788,12.137,6.788  c7.879,0,14.288-6.409,14.288-14.288s-6.409-14.288-14.288-14.288c-5.125,0-9.616,2.722-12.137,6.788h-25.035  c3.491-17.329,18.83-30.42,37.172-30.42c20.909,0,37.921,17.011,37.921,37.92s-17.012,37.92-37.921,37.92  c-18.342,0-33.681-13.091-37.172-30.42H238.441z M249.866,215.077c0-0.393,0.319-0.712,0.712-0.712c0.394,0,0.713,0.32,0.713,0.712  s-0.319,0.712-0.713,0.712C250.186,215.789,249.866,215.469,249.866,215.077z" fill="#87909c"/>
<g>
</g>
<g>
</g>
<g>
</g>
<g>
</g>
<g>
</g>
<g>
</g>
<g>
</g>
<g>
</g>
<g>
</g>
<g>
</g>
<g>
</g>
<g>
</g>
<g>
</g>
<g>
</g>
<g>
</g>
</svg>
